<svg width="231" height="268" viewBox="0 0 231 268" fill="none" xmlns="http://www.w3.org/2000/svg">
<ellipse cx="115.5" cy="134" rx="115.5" ry="134" fill="#D9D9D9"/>
<path d="M60.6001 189.9C71.0935 189.9 79.6001 180.914 79.6001 169.83C79.6001 158.745 71.0935 149.759 60.6001 149.759C50.1067 149.759 41.6001 158.745 41.6001 169.83C41.6001 180.914 50.1067 189.9 60.6001 189.9Z" fill="white" stroke="black" stroke-miterlimit="10"/>
<path d="M57 181.766C67.4934 181.766 76 172.78 76 161.696C76 150.611 67.4934 141.626 57 141.626C46.5066 141.626 38 150.611 38 161.696C38 172.78 46.5066 181.766 57 181.766Z" fill="white" stroke="black" stroke-miterlimit="10"/>
<path d="M57 171.414C67.4934 171.414 76 162.428 76 151.344C76 140.259 67.4934 131.274 57 131.274C46.5066 131.274 38 140.259 38 151.344C38 162.428 46.5066 171.414 57 171.414Z" fill="white" stroke="black" stroke-miterlimit="10"/>
<path d="M57 161.062C67.4934 161.062 76 152.076 76 140.992C76 129.907 67.4934 120.922 57 120.922C46.5066 120.922 38 129.907 38 140.992C38 152.076 46.5066 161.062 57 161.062Z" fill="white" stroke="black" stroke-miterlimit="10"/>
<path d="M57 150.816C67.4934 150.816 76 141.83 76 130.746C76 119.661 67.4934 110.675 57 110.675C46.5066 110.675 38 119.661 38 130.746C38 141.83 46.5066 150.816 57 150.816Z" fill="white" stroke="black" stroke-miterlimit="10"/>
<path d="M57 140.464C67.4934 140.464 76 131.478 76 120.393C76 109.309 67.4934 100.323 57 100.323C46.5066 100.323 38 109.309 38 120.393C38 131.478 46.5066 140.464 57 140.464Z" fill="white" stroke="black" stroke-miterlimit="10"/>
<path d="M57 130.112C67.4934 130.112 76 121.126 76 110.041C76 98.957 67.4934 89.9712 57 89.9712C46.5066 89.9712 38 98.957 38 110.041C38 121.126 46.5066 130.112 57 130.112Z" fill="white" stroke="black" stroke-miterlimit="10"/>
<path d="M57 119.865C67.4934 119.865 76 110.88 76 99.7951C76 88.7106 67.4934 79.7249 57 79.7249C46.5066 79.7249 38 88.7106 38 99.7951C38 110.88 46.5066 119.865 57 119.865Z" fill="white" stroke="black" stroke-miterlimit="10"/>
<path d="M57 109.513C67.4934 109.513 76 100.528 76 89.4431C76 78.3586 67.4934 69.3728 57 69.3728C46.5066 69.3728 38 78.3586 38 89.4431C38 100.528 46.5066 109.513 57 109.513Z" fill="white" stroke="black" stroke-miterlimit="10"/>
<path d="M57 99.1613C67.4934 99.1613 76 90.1755 76 79.091C76 68.0066 67.4934 59.0208 57 59.0208C46.5066 59.0208 38 68.0066 38 79.091C38 90.1755 46.5066 99.1613 57 99.1613Z" fill="white" stroke="black" stroke-miterlimit="10"/>
<path d="M57 88.9149C67.4934 88.9149 76 79.9291 76 68.8447C76 57.7602 67.4934 48.7744 57 48.7744C46.5066 48.7744 38 57.7602 38 68.8447C38 79.9291 46.5066 88.9149 57 88.9149Z" fill="white" stroke="black" stroke-miterlimit="10"/>
<path d="M57 78.5629C67.4934 78.5629 76 69.5771 76 58.4926C76 47.4082 67.4934 38.4224 57 38.4224C46.5066 38.4224 38 47.4082 38 58.4926C38 69.5771 46.5066 78.5629 57 78.5629Z" fill="white" stroke="black" stroke-miterlimit="10"/>
<path d="M59.5 67.4714C69.9934 67.4714 78.5 58.4857 78.5 47.4012C78.5 36.3167 69.9934 27.331 59.5 27.331C49.0066 27.331 40.5 36.3167 40.5 47.4012C40.5 58.4857 49.0066 67.4714 59.5 67.4714Z" fill="white" stroke="black" stroke-miterlimit="10"/>
<path d="M66.7001 63.1405C77.1935 63.1405 85.7001 54.1547 85.7001 43.0702C85.7001 31.9858 77.1935 23 66.7001 23C56.2067 23 47.7001 31.9858 47.7001 43.0702C47.7001 54.1547 56.2067 63.1405 66.7001 63.1405Z" fill="white" stroke="black" stroke-miterlimit="10"/>
<path d="M75.2001 66.9433C85.6935 66.9433 94.2001 57.9575 94.2001 46.873C94.2001 35.7885 85.6935 26.8028 75.2001 26.8028C64.7067 26.8028 56.2001 35.7885 56.2001 46.873C56.2001 57.9575 64.7067 66.9433 75.2001 66.9433Z" fill="white" stroke="black" stroke-miterlimit="10"/>
<path d="M78.1001 72.2249C88.5935 72.2249 97.1001 63.2392 97.1001 52.1547C97.1001 41.0702 88.5935 32.0844 78.1001 32.0844C67.6067 32.0844 59.1001 41.0702 59.1001 52.1547C59.1001 63.2392 67.6067 72.2249 78.1001 72.2249Z" fill="white" stroke="black" stroke-miterlimit="10"/>
<path d="M80.6001 78.9854C91.0935 78.9854 99.6001 69.9997 99.6001 58.9152C99.6001 47.8307 91.0935 38.8449 80.6001 38.8449C70.1067 38.8449 61.6001 47.8307 61.6001 58.9152C61.6001 69.9997 70.1067 78.9854 80.6001 78.9854Z" fill="white" stroke="black" stroke-miterlimit="10"/>
<path d="M84 88.8093C94.4934 88.8093 103 79.8235 103 68.739C103 57.6546 94.4934 48.6688 84 48.6688C73.5066 48.6688 65 57.6546 65 68.739C65 79.8235 73.5066 88.8093 84 88.8093Z" fill="white" stroke="black" stroke-miterlimit="10"/>
<path d="M88 100.957C98.4934 100.957 107 91.9713 107 80.8868C107 69.8023 98.4934 60.8166 88 60.8166C77.5066 60.8166 69 69.8023 69 80.8868C69 91.9713 77.5066 100.957 88 100.957Z" fill="white" stroke="black" stroke-miterlimit="10"/>
<path d="M92.5 114.372C102.993 114.372 111.5 105.387 111.5 94.3022C111.5 83.2177 102.993 74.2319 92.5 74.2319C82.0066 74.2319 73.5 83.2177 73.5 94.3022C73.5 105.387 82.0066 114.372 92.5 114.372Z" fill="white" stroke="black" stroke-miterlimit="10"/>
<path d="M97.1001 128.316C107.594 128.316 116.1 119.33 116.1 108.246C116.1 97.1612 107.594 88.1755 97.1001 88.1755C86.6067 88.1755 78.1001 97.1612 78.1001 108.246C78.1001 119.33 86.6067 128.316 97.1001 128.316Z" fill="white" stroke="black" stroke-miterlimit="10"/>
<path d="M101.6 142.048C112.094 142.048 120.6 133.062 120.6 121.978C120.6 110.894 112.094 101.908 101.6 101.908C91.1067 101.908 82.6001 110.894 82.6001 121.978C82.6001 133.062 91.1067 142.048 101.6 142.048Z" fill="white" stroke="black" stroke-miterlimit="10"/>
<path d="M105.7 154.513C116.193 154.513 124.7 145.527 124.7 134.443C124.7 123.358 116.193 114.372 105.7 114.372C95.2067 114.372 86.7001 123.358 86.7001 134.443C86.7001 145.527 95.2067 154.513 105.7 154.513Z" fill="white" stroke="black" stroke-miterlimit="10"/>
<path d="M109.1 164.865C119.594 164.865 128.1 155.879 128.1 144.795C128.1 133.71 119.594 124.724 109.1 124.724C98.6067 124.724 90.1001 133.71 90.1001 144.795C90.1001 155.879 98.6067 164.865 109.1 164.865Z" fill="white" stroke="black" stroke-miterlimit="10"/>
<path d="M111.5 172.47C121.993 172.47 130.5 163.485 130.5 152.4C130.5 141.316 121.993 132.33 111.5 132.33C101.007 132.33 92.5 141.316 92.5 152.4C92.5 163.485 101.007 172.47 111.5 172.47Z" fill="white" stroke="black" stroke-miterlimit="10"/>
<path d="M112.8 176.273C123.293 176.273 131.8 167.288 131.8 156.203C131.8 145.119 123.293 136.133 112.8 136.133C102.307 136.133 93.8 145.119 93.8 156.203C93.8 167.288 102.307 176.273 112.8 176.273Z" fill="white" stroke="black" stroke-miterlimit="10"/>
<path d="M116.5 182.083C126.993 182.083 135.5 173.097 135.5 162.013C135.5 150.928 126.993 141.943 116.5 141.943C106.007 141.943 97.5 150.928 97.5 162.013C97.5 173.097 106.007 182.083 116.5 182.083Z" fill="white" stroke="black" stroke-miterlimit="10"/>
<path d="M120.1 176.168C130.594 176.168 139.1 167.182 139.1 156.097C139.1 145.013 130.594 136.027 120.1 136.027C109.607 136.027 101.1 145.013 101.1 156.097C101.1 167.182 109.607 176.168 120.1 176.168Z" fill="white" stroke="black" stroke-miterlimit="10"/>
<path d="M121.4 172.154C131.893 172.154 140.4 163.168 140.4 152.083C140.4 140.999 131.893 132.013 121.4 132.013C110.907 132.013 102.4 140.999 102.4 152.083C102.4 163.168 110.907 172.154 121.4 172.154Z" fill="white" stroke="black" stroke-miterlimit="10"/>
<path d="M123.9 164.442C134.393 164.442 142.9 155.457 142.9 144.372C142.9 133.288 134.393 124.302 123.9 124.302C113.407 124.302 104.9 133.288 104.9 144.372C104.9 155.457 113.407 164.442 123.9 164.442Z" fill="white" stroke="black" stroke-miterlimit="10"/>
<path d="M127.4 153.879C137.893 153.879 146.4 144.893 146.4 133.809C146.4 122.724 137.893 113.739 127.4 113.739C116.907 113.739 108.4 122.724 108.4 133.809C108.4 144.893 116.907 153.879 127.4 153.879Z" fill="white" stroke="black" stroke-miterlimit="10"/>
<path d="M131.5 141.309C141.993 141.309 150.5 132.323 150.5 121.239C150.5 110.154 141.993 101.168 131.5 101.168C121.007 101.168 112.5 110.154 112.5 121.239C112.5 132.323 121.007 141.309 131.5 141.309Z" fill="white" stroke="black" stroke-miterlimit="10"/>
<path d="M136 127.682C146.493 127.682 155 118.696 155 107.612C155 96.5274 146.493 87.5417 136 87.5417C125.507 87.5417 117 96.5274 117 107.612C117 118.696 125.507 127.682 136 127.682Z" fill="white" stroke="black" stroke-miterlimit="10"/>
<path d="M140.6 113.739C151.094 113.739 159.6 104.753 159.6 93.6684C159.6 82.5839 151.094 73.5981 140.6 73.5981C130.107 73.5981 121.6 82.5839 121.6 93.6684C121.6 104.753 130.107 113.739 140.6 113.739Z" fill="white" stroke="black" stroke-miterlimit="10"/>
<path d="M145 100.323C155.493 100.323 164 91.3375 164 80.253C164 69.1685 155.493 60.1828 145 60.1828C134.507 60.1828 126 69.1685 126 80.253C126 91.3375 134.507 100.323 145 100.323Z" fill="white" stroke="black" stroke-miterlimit="10"/>
<path d="M149.1 88.2811C159.594 88.2811 168.1 79.2954 168.1 68.2109C168.1 57.1264 159.594 48.1406 149.1 48.1406C138.607 48.1406 130.1 57.1264 130.1 68.2109C130.1 79.2954 138.607 88.2811 149.1 88.2811Z" fill="white" stroke="black" stroke-miterlimit="10"/>
<path d="M152.4 78.5629C162.893 78.5629 171.4 69.5771 171.4 58.4926C171.4 47.4082 162.893 38.4224 152.4 38.4224C141.907 38.4224 133.4 47.4082 133.4 58.4926C133.4 69.5771 141.907 78.5629 152.4 78.5629Z" fill="white" stroke="black" stroke-miterlimit="10"/>
<path d="M154.8 72.0136C165.293 72.0136 173.8 63.0279 173.8 51.9434C173.8 40.8589 165.293 31.8731 154.8 31.8731C144.307 31.8731 135.8 40.8589 135.8 51.9434C135.8 63.0279 144.307 72.0136 154.8 72.0136Z" fill="white" stroke="black" stroke-miterlimit="10"/>
<path d="M158 66.5207C168.493 66.5207 177 57.535 177 46.4505C177 35.366 168.493 26.3803 158 26.3803C147.507 26.3803 139 35.366 139 46.4505C139 57.535 147.507 66.5207 158 66.5207Z" fill="white" stroke="black" stroke-miterlimit="10"/>
<path d="M166.7 63.2461C177.193 63.2461 185.7 54.2604 185.7 43.1759C185.7 32.0914 177.193 23.1056 166.7 23.1056C156.207 23.1056 147.7 32.0914 147.7 43.1759C147.7 54.2604 156.207 63.2461 166.7 63.2461Z" fill="white" stroke="black" stroke-miterlimit="10"/>
<path d="M173.7 67.7883C184.193 67.7883 192.7 58.8026 192.7 47.7181C192.7 36.6336 184.193 27.6478 173.7 27.6478C163.207 27.6478 154.7 36.6336 154.7 47.7181C154.7 58.8026 163.207 67.7883 173.7 67.7883Z" fill="white" stroke="black" stroke-miterlimit="10"/>
<path d="M175.9 79.091C186.393 79.091 194.9 70.1053 194.9 59.0208C194.9 47.9363 186.393 38.9506 175.9 38.9506C165.407 38.9506 156.9 47.9363 156.9 59.0208C156.9 70.1053 165.407 79.091 175.9 79.091Z" fill="white" stroke="black" stroke-miterlimit="10"/>
<path d="M175.9 89.3374C186.393 89.3374 194.9 80.3517 194.9 69.2672C194.9 58.1827 186.393 49.197 175.9 49.197C165.407 49.197 156.9 58.1827 156.9 69.2672C156.9 80.3517 165.407 89.3374 175.9 89.3374Z" fill="white" stroke="black" stroke-miterlimit="10"/>
<path d="M175.9 99.6895C186.393 99.6895 194.9 90.7037 194.9 79.6192C194.9 68.5347 186.393 59.549 175.9 59.549C165.407 59.549 156.9 68.5347 156.9 79.6192C156.9 90.7037 165.407 99.6895 175.9 99.6895Z" fill="white" stroke="black" stroke-miterlimit="10"/>
<path d="M175.9 110.041C186.393 110.041 194.9 101.056 194.9 89.9712C194.9 78.8867 186.393 69.901 175.9 69.901C165.407 69.901 156.9 78.8867 156.9 89.9712C156.9 101.056 165.407 110.041 175.9 110.041Z" fill="white" stroke="black" stroke-miterlimit="10"/>
<path d="M175.9 120.288C186.393 120.288 194.9 111.302 194.9 100.218C194.9 89.1331 186.393 80.1474 175.9 80.1474C165.407 80.1474 156.9 89.1331 156.9 100.218C156.9 111.302 165.407 120.288 175.9 120.288Z" fill="white" stroke="black" stroke-miterlimit="10"/>
<path d="M175.9 130.64C186.393 130.64 194.9 121.654 194.9 110.57C194.9 99.4851 186.393 90.4994 175.9 90.4994C165.407 90.4994 156.9 99.4851 156.9 110.57C156.9 121.654 165.407 130.64 175.9 130.64Z" fill="white" stroke="black" stroke-miterlimit="10"/>
<path d="M175.9 140.992C186.393 140.992 194.9 132.006 194.9 120.922C194.9 109.837 186.393 100.851 175.9 100.851C165.407 100.851 156.9 109.837 156.9 120.922C156.9 132.006 165.407 140.992 175.9 140.992Z" fill="white" stroke="black" stroke-miterlimit="10"/>
<path d="M175.9 151.238C186.393 151.238 194.9 142.253 194.9 131.168C194.9 120.084 186.393 111.098 175.9 111.098C165.407 111.098 156.9 120.084 156.9 131.168C156.9 142.253 165.407 151.238 175.9 151.238Z" fill="white" stroke="black" stroke-miterlimit="10"/>
<path d="M175.9 161.59C186.393 161.59 194.9 152.605 194.9 141.52C194.9 130.436 186.393 121.45 175.9 121.45C165.407 121.45 156.9 130.436 156.9 141.52C156.9 152.605 165.407 161.59 175.9 161.59Z" fill="white" stroke="black" stroke-miterlimit="10"/>
<path d="M175.9 171.942C186.393 171.942 194.9 162.957 194.9 151.872C194.9 140.788 186.393 131.802 175.9 131.802C165.407 131.802 156.9 140.788 156.9 151.872C156.9 162.957 165.407 171.942 175.9 171.942Z" fill="white" stroke="black" stroke-miterlimit="10"/>
<path d="M175.9 182.294C186.393 182.294 194.9 173.309 194.9 162.224C194.9 151.14 186.393 142.154 175.9 142.154C165.407 142.154 156.9 151.14 156.9 162.224C156.9 173.309 165.407 182.294 175.9 182.294Z" fill="white" stroke="black" stroke-miterlimit="10"/>
<path d="M171.7 189.9C182.193 189.9 190.7 180.914 190.7 169.83C190.7 158.745 182.193 149.759 171.7 149.759C161.207 149.759 152.7 158.745 152.7 169.83C152.7 180.914 161.207 189.9 171.7 189.9Z" fill="white" stroke="black" stroke-miterlimit="10"/>
<path d="M168.6 181.238C179.094 181.238 187.6 172.252 187.6 161.168C187.6 150.083 179.094 141.098 168.6 141.098C158.107 141.098 149.6 150.083 149.6 161.168C149.6 172.252 158.107 181.238 168.6 181.238Z" fill="white" stroke="black" stroke-miterlimit="10"/>
<path d="M168.6 170.886C179.094 170.886 187.6 161.9 187.6 150.816C187.6 139.731 179.094 130.746 168.6 130.746C158.107 130.746 149.6 139.731 149.6 150.816C149.6 161.9 158.107 170.886 168.6 170.886Z" fill="white" stroke="black" stroke-miterlimit="10"/>
<path d="M168.6 160.64C179.094 160.64 187.6 151.654 187.6 140.569C187.6 129.485 179.094 120.499 168.6 120.499C158.107 120.499 149.6 129.485 149.6 140.569C149.6 151.654 158.107 160.64 168.6 160.64Z" fill="white" stroke="black" stroke-miterlimit="10"/>
<path d="M168.6 150.288C179.094 150.288 187.6 141.302 187.6 130.217C187.6 119.133 179.094 110.147 168.6 110.147C158.107 110.147 149.6 119.133 149.6 130.217C149.6 141.302 158.107 150.288 168.6 150.288Z" fill="white" stroke="black" stroke-miterlimit="10"/>
<path d="M168.6 139.936C179.094 139.936 187.6 130.95 187.6 119.865C187.6 108.781 179.094 99.7951 168.6 99.7951C158.107 99.7951 149.6 108.781 149.6 119.865C149.6 130.95 158.107 139.936 168.6 139.936Z" fill="white" stroke="black" stroke-miterlimit="10"/>
<path d="M168.6 129.689C179.094 129.689 187.6 120.703 187.6 109.619C187.6 98.5344 179.094 89.5487 168.6 89.5487C158.107 89.5487 149.6 98.5344 149.6 109.619C149.6 120.703 158.107 129.689 168.6 129.689Z" fill="white" stroke="black" stroke-miterlimit="10"/>
<path d="M168.6 119.337C179.094 119.337 187.6 110.351 187.6 99.2669C187.6 88.1824 179.094 79.1967 168.6 79.1967C158.107 79.1967 149.6 88.1824 149.6 99.2669C149.6 110.351 158.107 119.337 168.6 119.337Z" fill="white" stroke="black" stroke-miterlimit="10"/>
<path d="M168.6 108.985C179.094 108.985 187.6 99.9994 187.6 88.9149C187.6 77.8304 179.094 68.8447 168.6 68.8447C158.107 68.8447 149.6 77.8304 149.6 88.9149C149.6 99.9994 158.107 108.985 168.6 108.985Z" fill="white" stroke="black" stroke-miterlimit="10"/>
<path d="M168.6 98.6331C179.094 98.6331 187.6 89.6474 187.6 78.5629C187.6 67.4784 179.094 58.4926 168.6 58.4926C158.107 58.4926 149.6 67.4784 149.6 78.5629C149.6 89.6474 158.107 98.6331 168.6 98.6331Z" fill="white" stroke="black" stroke-miterlimit="10"/>
<path d="M168.6 88.3867C179.094 88.3867 187.6 79.401 187.6 68.3165C187.6 57.232 179.094 48.2462 168.6 48.2462C158.107 48.2462 149.6 57.232 149.6 68.3165C149.6 79.401 158.107 88.3867 168.6 88.3867Z" fill="white" stroke="black" stroke-miterlimit="10"/>
<path d="M168.6 78.0347C179.094 78.0347 187.6 69.049 187.6 57.9645C187.6 46.88 179.094 37.8942 168.6 37.8942C158.107 37.8942 149.6 46.88 149.6 57.9645C149.6 69.049 158.107 78.0347 168.6 78.0347Z" fill="white" stroke="black" stroke-miterlimit="10"/>
<path d="M164.5 70.9573C174.993 70.9573 183.5 61.9716 183.5 50.8871C183.5 39.8026 174.993 30.8168 164.5 30.8168C154.007 30.8168 145.5 39.8026 145.5 50.8871C145.5 61.9716 154.007 70.9573 164.5 70.9573Z" fill="white" stroke="black" stroke-miterlimit="10"/>
<path d="M161.2 75.6052C171.693 75.6052 180.2 66.6194 180.2 55.5349C180.2 44.4504 171.693 35.4647 161.2 35.4647C150.707 35.4647 142.2 44.4504 142.2 55.5349C142.2 66.6194 150.707 75.6052 161.2 75.6052Z" fill="white" stroke="black" stroke-miterlimit="10"/>
<path d="M158.9 82.0488C169.393 82.0488 177.9 73.063 177.9 61.9785C177.9 50.894 169.393 41.9083 158.9 41.9083C148.407 41.9083 139.9 50.894 139.9 61.9785C139.9 73.063 148.407 82.0488 158.9 82.0488Z" fill="white" stroke="black" stroke-miterlimit="10"/>
<path d="M155.7 91.4501C166.193 91.4501 174.7 82.4644 174.7 71.3799C174.7 60.2954 166.193 51.3096 155.7 51.3096C145.207 51.3096 136.7 60.2954 136.7 71.3799C136.7 82.4644 145.207 91.4501 155.7 91.4501Z" fill="white" stroke="black" stroke-miterlimit="10"/>
<path d="M151.8 103.07C162.293 103.07 170.8 94.084 170.8 82.9995C170.8 71.915 162.293 62.9292 151.8 62.9292C141.307 62.9292 132.8 71.915 132.8 82.9995C132.8 94.084 141.307 103.07 151.8 103.07Z" fill="white" stroke="black" stroke-miterlimit="10"/>
<path d="M147.4 116.063C157.893 116.063 166.4 107.077 166.4 95.9923C166.4 84.9078 157.893 75.9221 147.4 75.9221C136.907 75.9221 128.4 84.9078 128.4 95.9923C128.4 107.077 136.907 116.063 147.4 116.063Z" fill="white" stroke="black" stroke-miterlimit="10"/>
<path d="M142.9 129.689C153.393 129.689 161.9 120.703 161.9 109.619C161.9 98.5344 153.393 89.5487 142.9 89.5487C132.407 89.5487 123.9 98.5344 123.9 109.619C123.9 120.703 132.407 129.689 142.9 129.689Z" fill="white" stroke="black" stroke-miterlimit="10"/>
<path d="M138.5 143.105C148.993 143.105 157.5 134.119 157.5 123.034C157.5 111.95 148.993 102.964 138.5 102.964C128.007 102.964 119.5 111.95 119.5 123.034C119.5 134.119 128.007 143.105 138.5 143.105Z" fill="white" stroke="black" stroke-miterlimit="10"/>
<path d="M134.5 155.569C144.993 155.569 153.5 146.583 153.5 135.499C153.5 124.415 144.993 115.429 134.5 115.429C124.007 115.429 115.5 124.415 115.5 135.499C115.5 146.583 124.007 155.569 134.5 155.569Z" fill="white" stroke="black" stroke-miterlimit="10"/>
<path d="M131 166.133C141.493 166.133 150 157.147 150 146.062C150 134.978 141.493 125.992 131 125.992C120.507 125.992 112 134.978 112 146.062C112 157.147 120.507 166.133 131 166.133Z" fill="white" stroke="black" stroke-miterlimit="10"/>
<path d="M128.4 174.055C138.893 174.055 147.4 165.069 147.4 153.985C147.4 142.9 138.893 133.914 128.4 133.914C117.907 133.914 109.4 142.9 109.4 153.985C109.4 165.069 117.907 174.055 128.4 174.055Z" fill="white" stroke="black" stroke-miterlimit="10"/>
<path d="M127 178.597C137.493 178.597 146 169.611 146 158.527C146 147.442 137.493 138.457 127 138.457C116.507 138.457 108 147.442 108 158.527C108 169.611 116.507 178.597 127 178.597Z" fill="white" stroke="black" stroke-miterlimit="10"/>
<path d="M122.3 187.259C132.793 187.259 141.3 178.273 141.3 167.189C141.3 156.104 132.793 147.119 122.3 147.119C111.807 147.119 103.3 156.104 103.3 167.189C103.3 178.273 111.807 187.259 122.3 187.259Z" fill="white" stroke="black" stroke-miterlimit="10"/>
<path d="M113.6 189.266C124.094 189.266 132.6 180.28 132.6 169.196C132.6 158.111 124.094 149.126 113.6 149.126C103.107 149.126 94.6001 158.111 94.6001 169.196C94.6001 180.28 103.107 189.266 113.6 189.266Z" fill="white" stroke="black" stroke-miterlimit="10"/>
<path d="M106.9 181.661C117.393 181.661 125.9 172.675 125.9 161.59C125.9 150.506 117.393 141.52 106.9 141.52C96.4066 141.52 87.9 150.506 87.9 161.59C87.9 172.675 96.4066 181.661 106.9 181.661Z" fill="white" stroke="black" stroke-miterlimit="10"/>
<path d="M105.4 176.907C115.893 176.907 124.4 167.921 124.4 156.837C124.4 145.752 115.893 136.767 105.4 136.767C94.9066 136.767 86.4 145.752 86.4 156.837C86.4 167.921 94.9066 176.907 105.4 176.907Z" fill="white" stroke="black" stroke-miterlimit="10"/>
<path d="M103.4 170.675C113.893 170.675 122.4 161.689 122.4 150.605C122.4 139.52 113.893 130.534 103.4 130.534C92.9066 130.534 84.4 139.52 84.4 150.605C84.4 161.689 92.9066 170.675 103.4 170.675Z" fill="white" stroke="black" stroke-miterlimit="10"/>
<path d="M100.3 161.485C110.793 161.485 119.3 152.499 119.3 141.414C119.3 130.33 110.793 121.344 100.3 121.344C89.8066 121.344 81.3 130.33 81.3 141.414C81.3 152.499 89.8066 161.485 100.3 161.485Z" fill="white" stroke="black" stroke-miterlimit="10"/>
<path d="M96.6001 149.865C107.094 149.865 115.6 140.879 115.6 129.795C115.6 118.71 107.094 109.725 96.6001 109.725C86.1067 109.725 77.6001 118.71 77.6001 129.795C77.6001 140.879 86.1067 149.865 96.6001 149.865Z" fill="white" stroke="black" stroke-miterlimit="10"/>
<path d="M92.3 136.978C102.793 136.978 111.3 127.992 111.3 116.908C111.3 105.823 102.793 96.8374 92.3 96.8374C81.8066 96.8374 73.3 105.823 73.3 116.908C73.3 127.992 81.8066 136.978 92.3 136.978Z" fill="white" stroke="black" stroke-miterlimit="10"/>
<path d="M87.8 123.351C98.2935 123.351 106.8 114.365 106.8 103.281C106.8 92.1965 98.2935 83.2107 87.8 83.2107C77.3066 83.2107 68.8 92.1965 68.8 103.281C68.8 114.365 77.3066 123.351 87.8 123.351Z" fill="white" stroke="black" stroke-miterlimit="10"/>
<path d="M83.4 109.936C93.8934 109.936 102.4 100.95 102.4 89.8656C102.4 78.7811 93.8934 69.7954 83.4 69.7954C72.9066 69.7954 64.4 78.7811 64.4 89.8656C64.4 100.95 72.9066 109.936 83.4 109.936Z" fill="white" stroke="black" stroke-miterlimit="10"/>
<path d="M79.2001 97.4712C89.6935 97.4712 98.2001 88.4854 98.2001 77.4009C98.2001 66.3164 89.6935 57.3307 79.2001 57.3307C68.7067 57.3307 60.2001 66.3164 60.2001 77.4009C60.2001 88.4854 68.7067 97.4712 79.2001 97.4712Z" fill="white" stroke="black" stroke-miterlimit="10"/>
<path d="M75.6001 86.6966C86.0935 86.6966 94.6001 77.7109 94.6001 66.6264C94.6001 55.5419 86.0935 46.5561 75.6001 46.5561C65.1067 46.5561 56.6001 55.5419 56.6001 66.6264C56.6001 77.7109 65.1067 86.6966 75.6001 86.6966Z" fill="white" stroke="black" stroke-miterlimit="10"/>
<path d="M72.7001 78.5629C83.1935 78.5629 91.7001 69.5771 91.7001 58.4926C91.7001 47.4082 83.1935 38.4224 72.7001 38.4224C62.2067 38.4224 53.7001 47.4082 53.7001 58.4926C53.7001 69.5771 62.2067 78.5629 72.7001 78.5629Z" fill="white" stroke="black" stroke-miterlimit="10"/>
<path d="M71 73.8094C81.4934 73.8094 90 64.8237 90 53.7392C90 42.6547 81.4934 33.6689 71 33.6689C60.5066 33.6689 52 42.6547 52 53.7392C52 64.8237 60.5066 73.8094 71 73.8094Z" fill="white" stroke="black" stroke-miterlimit="10"/>
<path d="M65.1001 72.2249C75.5935 72.2249 84.1001 63.2392 84.1001 52.1547C84.1001 41.0702 75.5935 32.0844 65.1001 32.0844C54.6067 32.0844 46.1001 41.0702 46.1001 52.1547C46.1001 63.2392 54.6067 72.2249 65.1001 72.2249Z" fill="white" stroke="black" stroke-miterlimit="10"/>
<path d="M64.2001 82.8938C74.6935 82.8938 83.2001 73.9081 83.2001 62.8236C83.2001 51.7391 74.6935 42.7534 64.2001 42.7534C53.7067 42.7534 45.2001 51.7391 45.2001 62.8236C45.2001 73.9081 53.7067 82.8938 64.2001 82.8938Z" fill="white" stroke="black" stroke-miterlimit="10"/>
<path d="M64.2001 93.1402C74.6935 93.1402 83.2001 84.1545 83.2001 73.07C83.2001 61.9855 74.6935 52.9997 64.2001 52.9997C53.7067 52.9997 45.2001 61.9855 45.2001 73.07C45.2001 84.1545 53.7067 93.1402 64.2001 93.1402Z" fill="white" stroke="black" stroke-miterlimit="10"/>
<path d="M64.2001 103.492C74.6935 103.492 83.2001 94.5065 83.2001 83.422C83.2001 72.3375 74.6935 63.3518 64.2001 63.3518C53.7067 63.3518 45.2001 72.3375 45.2001 83.422C45.2001 94.5065 53.7067 103.492 64.2001 103.492Z" fill="white" stroke="black" stroke-miterlimit="10"/>
<path d="M64.2001 113.844C74.6935 113.844 83.2001 104.858 83.2001 93.774C83.2001 82.6895 74.6935 73.7038 64.2001 73.7038C53.7067 73.7038 45.2001 82.6895 45.2001 93.774C45.2001 104.858 53.7067 113.844 64.2001 113.844Z" fill="white" stroke="black" stroke-miterlimit="10"/>
<path d="M64.2001 124.196C74.6935 124.196 83.2001 115.211 83.2001 104.126C83.2001 93.0416 74.6935 84.0558 64.2001 84.0558C53.7067 84.0558 45.2001 93.0416 45.2001 104.126C45.2001 115.211 53.7067 124.196 64.2001 124.196Z" fill="white" stroke="black" stroke-miterlimit="10"/>
<path d="M64.2001 134.443C74.6935 134.443 83.2001 125.457 83.2001 114.372C83.2001 103.288 74.6935 94.3022 64.2001 94.3022C53.7067 94.3022 45.2001 103.288 45.2001 114.372C45.2001 125.457 53.7067 134.443 64.2001 134.443Z" fill="white" stroke="black" stroke-miterlimit="10"/>
<path d="M64.2001 144.795C74.6935 144.795 83.2001 135.809 83.2001 124.724C83.2001 113.64 74.6935 104.654 64.2001 104.654C53.7067 104.654 45.2001 113.64 45.2001 124.724C45.2001 135.809 53.7067 144.795 64.2001 144.795Z" fill="white" stroke="black" stroke-miterlimit="10"/>
<path d="M64.2001 155.147C74.6935 155.147 83.2001 146.161 83.2001 135.076C83.2001 123.992 74.6935 115.006 64.2001 115.006C53.7067 115.006 45.2001 123.992 45.2001 135.076C45.2001 146.161 53.7067 155.147 64.2001 155.147Z" fill="white" stroke="black" stroke-miterlimit="10"/>
<path d="M64.2001 165.393C74.6935 165.393 83.2001 156.407 83.2001 145.323C83.2001 134.238 74.6935 125.253 64.2001 125.253C53.7067 125.253 45.2001 134.238 45.2001 145.323C45.2001 156.407 53.7067 165.393 64.2001 165.393Z" fill="white" stroke="black" stroke-miterlimit="10"/>
<path d="M64.2001 175.745C74.6935 175.745 83.2001 166.759 83.2001 155.675C83.2001 144.59 74.6935 135.605 64.2001 135.605C53.7067 135.605 45.2001 144.59 45.2001 155.675C45.2001 166.759 53.7067 175.745 64.2001 175.745Z" fill="white" stroke="black" stroke-miterlimit="10"/>
<path d="M64.2001 186.097C74.6935 186.097 83.2001 177.111 83.2001 166.027C83.2001 154.942 74.6935 145.957 64.2001 145.957C53.7067 145.957 45.2001 154.942 45.2001 166.027C45.2001 177.111 53.7067 186.097 64.2001 186.097Z" fill="white" stroke="black" stroke-miterlimit="10"/>
<path d="M161.7 219.2C172.193 219.2 180.7 210.693 180.7 200.2C180.7 189.707 172.193 181.2 161.7 181.2C151.207 181.2 142.7 189.707 142.7 200.2C142.7 210.693 151.207 219.2 161.7 219.2Z" fill="white" stroke="black" stroke-miterlimit="10"/>
<path d="M161 221.4C171.493 221.4 180 212.893 180 202.4C180 191.907 171.493 183.4 161 183.4C150.507 183.4 142 191.907 142 202.4C142 212.893 150.507 221.4 161 221.4Z" fill="white" stroke="black" stroke-miterlimit="10"/>
<path d="M159.1 222.6C169.593 222.6 178.1 214.093 178.1 203.6C178.1 193.107 169.593 184.6 159.1 184.6C148.607 184.6 140.1 193.107 140.1 203.6C140.1 214.093 148.607 222.6 159.1 222.6Z" fill="white" stroke="black" stroke-miterlimit="10"/>
<path d="M156.7 222.8C167.193 222.8 175.7 214.293 175.7 203.8C175.7 193.307 167.193 184.8 156.7 184.8C146.207 184.8 137.7 193.307 137.7 203.8C137.7 214.293 146.207 222.8 156.7 222.8Z" fill="white" stroke="black" stroke-miterlimit="10"/>
<path d="M154.3 222.8C164.793 222.8 173.3 214.293 173.3 203.8C173.3 193.307 164.793 184.8 154.3 184.8C143.807 184.8 135.3 193.307 135.3 203.8C135.3 214.293 143.807 222.8 154.3 222.8Z" fill="white" stroke="black" stroke-miterlimit="10"/>
<path d="M151.9 222.8C162.393 222.8 170.9 214.293 170.9 203.8C170.9 193.307 162.393 184.8 151.9 184.8C141.407 184.8 132.9 193.307 132.9 203.8C132.9 214.293 141.407 222.8 151.9 222.8Z" fill="white" stroke="black" stroke-miterlimit="10"/>
<path d="M149.5 222.8C159.993 222.8 168.5 214.293 168.5 203.8C168.5 193.307 159.993 184.8 149.5 184.8C139.007 184.8 130.5 193.307 130.5 203.8C130.5 214.293 139.007 222.8 149.5 222.8Z" fill="white" stroke="black" stroke-miterlimit="10"/>
<path d="M147.2 222.8C157.693 222.8 166.2 214.293 166.2 203.8C166.2 193.307 157.693 184.8 147.2 184.8C136.707 184.8 128.2 193.307 128.2 203.8C128.2 214.293 136.707 222.8 147.2 222.8Z" fill="white" stroke="black" stroke-miterlimit="10"/>
<path d="M144.8 222.8C155.293 222.8 163.8 214.293 163.8 203.8C163.8 193.307 155.293 184.8 144.8 184.8C134.307 184.8 125.8 193.307 125.8 203.8C125.8 214.293 134.307 222.8 144.8 222.8Z" fill="white" stroke="black" stroke-miterlimit="10"/>
<path d="M142.4 222.8C152.893 222.8 161.4 214.293 161.4 203.8C161.4 193.307 152.893 184.8 142.4 184.8C131.907 184.8 123.4 193.307 123.4 203.8C123.4 214.293 131.907 222.8 142.4 222.8Z" fill="white" stroke="black" stroke-miterlimit="10"/>
<path d="M140 222.8C150.493 222.8 159 214.293 159 203.8C159 193.307 150.493 184.8 140 184.8C129.507 184.8 121 193.307 121 203.8C121 214.293 129.507 222.8 140 222.8Z" fill="white" stroke="black" stroke-miterlimit="10"/>
<path d="M137.6 222.8C148.093 222.8 156.6 214.293 156.6 203.8C156.6 193.307 148.093 184.8 137.6 184.8C127.107 184.8 118.6 193.307 118.6 203.8C118.6 214.293 127.107 222.8 137.6 222.8Z" fill="white" stroke="black" stroke-miterlimit="10"/>
<path d="M135.3 222.8C145.793 222.8 154.3 214.293 154.3 203.8C154.3 193.307 145.793 184.8 135.3 184.8C124.807 184.8 116.3 193.307 116.3 203.8C116.3 214.293 124.807 222.8 135.3 222.8Z" fill="white" stroke="black" stroke-miterlimit="10"/>
<path d="M132.9 222.8C143.393 222.8 151.9 214.293 151.9 203.8C151.9 193.307 143.393 184.8 132.9 184.8C122.407 184.8 113.9 193.307 113.9 203.8C113.9 214.293 122.407 222.8 132.9 222.8Z" fill="white" stroke="black" stroke-miterlimit="10"/>
<path d="M130.5 222.8C140.993 222.8 149.5 214.293 149.5 203.8C149.5 193.307 140.993 184.8 130.5 184.8C120.007 184.8 111.5 193.307 111.5 203.8C111.5 214.293 120.007 222.8 130.5 222.8Z" fill="white" stroke="black" stroke-miterlimit="10"/>
<path d="M128.1 222.8C138.593 222.8 147.1 214.293 147.1 203.8C147.1 193.307 138.593 184.8 128.1 184.8C117.607 184.8 109.1 193.307 109.1 203.8C109.1 214.293 117.607 222.8 128.1 222.8Z" fill="white" stroke="black" stroke-miterlimit="10"/>
<path d="M125.8 222.8C136.293 222.8 144.8 214.293 144.8 203.8C144.8 193.307 136.293 184.8 125.8 184.8C115.307 184.8 106.8 193.307 106.8 203.8C106.8 214.293 115.307 222.8 125.8 222.8Z" fill="white" stroke="black" stroke-miterlimit="10"/>
<path d="M123.4 222.8C133.893 222.8 142.4 214.293 142.4 203.8C142.4 193.307 133.893 184.8 123.4 184.8C112.907 184.8 104.4 193.307 104.4 203.8C104.4 214.293 112.907 222.8 123.4 222.8Z" fill="white" stroke="black" stroke-miterlimit="10"/>
<path d="M121 222.8C131.493 222.8 140 214.293 140 203.8C140 193.307 131.493 184.8 121 184.8C110.507 184.8 102 193.307 102 203.8C102 214.293 110.507 222.8 121 222.8Z" fill="white" stroke="black" stroke-miterlimit="10"/>
<path d="M118.6 222.8C129.093 222.8 137.6 214.293 137.6 203.8C137.6 193.307 129.093 184.8 118.6 184.8C108.107 184.8 99.6 193.307 99.6 203.8C99.6 214.293 108.107 222.8 118.6 222.8Z" fill="white" stroke="black" stroke-miterlimit="10"/>
<path d="M116.3 222.8C126.793 222.8 135.3 214.293 135.3 203.8C135.3 193.307 126.793 184.8 116.3 184.8C105.807 184.8 97.3 193.307 97.3 203.8C97.3 214.293 105.807 222.8 116.3 222.8Z" fill="white" stroke="black" stroke-miterlimit="10"/>
<path d="M113.9 222.8C124.393 222.8 132.9 214.293 132.9 203.8C132.9 193.307 124.393 184.8 113.9 184.8C103.407 184.8 94.9 193.307 94.9 203.8C94.9 214.293 103.407 222.8 113.9 222.8Z" fill="white" stroke="black" stroke-miterlimit="10"/>
<path d="M111.5 222.8C121.993 222.8 130.5 214.293 130.5 203.8C130.5 193.307 121.993 184.8 111.5 184.8C101.007 184.8 92.5 193.307 92.5 203.8C92.5 214.293 101.007 222.8 111.5 222.8Z" fill="white" stroke="black" stroke-miterlimit="10"/>
<path d="M109.1 222.8C119.593 222.8 128.1 214.293 128.1 203.8C128.1 193.307 119.593 184.8 109.1 184.8C98.6066 184.8 90.1 193.307 90.1 203.8C90.1 214.293 98.6066 222.8 109.1 222.8Z" fill="white" stroke="black" stroke-miterlimit="10"/>
<path d="M106.8 222.8C117.293 222.8 125.8 214.293 125.8 203.8C125.8 193.307 117.293 184.8 106.8 184.8C96.3066 184.8 87.8 193.307 87.8 203.8C87.8 214.293 96.3066 222.8 106.8 222.8Z" fill="white" stroke="black" stroke-miterlimit="10"/>
<path d="M104.4 222.4C114.893 222.4 123.4 213.893 123.4 203.4C123.4 192.907 114.893 184.4 104.4 184.4C93.9066 184.4 85.4 192.907 85.4 203.4C85.4 213.893 93.9066 222.4 104.4 222.4Z" fill="white" stroke="black" stroke-miterlimit="10"/>
<path d="M102.8 220.8C113.293 220.8 121.8 212.293 121.8 201.8C121.8 191.307 113.293 182.8 102.8 182.8C92.3066 182.8 83.8 191.307 83.8 201.8C83.8 212.293 92.3066 220.8 102.8 220.8Z" fill="white" stroke="black" stroke-miterlimit="10"/>
<path d="M102.5 218.4C112.993 218.4 121.5 209.893 121.5 199.4C121.5 188.907 112.993 180.4 102.5 180.4C92.0066 180.4 83.5 188.907 83.5 199.4C83.5 209.893 92.0066 218.4 102.5 218.4Z" fill="white" stroke="black" stroke-miterlimit="10"/>
<path d="M103.7 216.4C114.193 216.4 122.7 207.893 122.7 197.4C122.7 186.907 114.193 178.4 103.7 178.4C93.2066 178.4 84.7 186.907 84.7 197.4C84.7 207.893 93.2066 216.4 103.7 216.4Z" fill="white" stroke="black" stroke-miterlimit="10"/>
<path d="M105.8 215.6C116.293 215.6 124.8 207.093 124.8 196.6C124.8 186.107 116.293 177.6 105.8 177.6C95.3066 177.6 86.8 186.107 86.8 196.6C86.8 207.093 95.3066 215.6 105.8 215.6Z" fill="white" stroke="black" stroke-miterlimit="10"/>
<path d="M108.2 215.5C118.693 215.5 127.2 206.993 127.2 196.5C127.2 186.007 118.693 177.5 108.2 177.5C97.7066 177.5 89.2 186.007 89.2 196.5C89.2 206.993 97.7066 215.5 108.2 215.5Z" fill="white" stroke="black" stroke-miterlimit="10"/>
<path d="M110.6 215.5C121.093 215.5 129.6 206.993 129.6 196.5C129.6 186.007 121.093 177.5 110.6 177.5C100.107 177.5 91.6 186.007 91.6 196.5C91.6 206.993 100.107 215.5 110.6 215.5Z" fill="white" stroke="black" stroke-miterlimit="10"/>
<path d="M113 215.5C123.493 215.5 132 206.993 132 196.5C132 186.007 123.493 177.5 113 177.5C102.507 177.5 94 186.007 94 196.5C94 206.993 102.507 215.5 113 215.5Z" fill="white" stroke="black" stroke-miterlimit="10"/>
<path d="M115.3 215.5C125.793 215.5 134.3 206.993 134.3 196.5C134.3 186.007 125.793 177.5 115.3 177.5C104.807 177.5 96.3 186.007 96.3 196.5C96.3 206.993 104.807 215.5 115.3 215.5Z" fill="white" stroke="black" stroke-miterlimit="10"/>
<path d="M117.7 215.5C128.193 215.5 136.7 206.993 136.7 196.5C136.7 186.007 128.193 177.5 117.7 177.5C107.207 177.5 98.7 186.007 98.7 196.5C98.7 206.993 107.207 215.5 117.7 215.5Z" fill="white" stroke="black" stroke-miterlimit="10"/>
<path d="M120.1 215.5C130.593 215.5 139.1 206.993 139.1 196.5C139.1 186.007 130.593 177.5 120.1 177.5C109.607 177.5 101.1 186.007 101.1 196.5C101.1 206.993 109.607 215.5 120.1 215.5Z" fill="white" stroke="black" stroke-miterlimit="10"/>
<path d="M122.5 215.5C132.993 215.5 141.5 206.993 141.5 196.5C141.5 186.007 132.993 177.5 122.5 177.5C112.007 177.5 103.5 186.007 103.5 196.5C103.5 206.993 112.007 215.5 122.5 215.5Z" fill="white" stroke="black" stroke-miterlimit="10"/>
<path d="M124.8 215.5C135.293 215.5 143.8 206.993 143.8 196.5C143.8 186.007 135.293 177.5 124.8 177.5C114.307 177.5 105.8 186.007 105.8 196.5C105.8 206.993 114.307 215.5 124.8 215.5Z" fill="white" stroke="black" stroke-miterlimit="10"/>
<path d="M127.2 215.5C137.693 215.5 146.2 206.993 146.2 196.5C146.2 186.007 137.693 177.5 127.2 177.5C116.707 177.5 108.2 186.007 108.2 196.5C108.2 206.993 116.707 215.5 127.2 215.5Z" fill="white" stroke="black" stroke-miterlimit="10"/>
<path d="M129.6 215.5C140.093 215.5 148.6 206.993 148.6 196.5C148.6 186.007 140.093 177.5 129.6 177.5C119.107 177.5 110.6 186.007 110.6 196.5C110.6 206.993 119.107 215.5 129.6 215.5Z" fill="white" stroke="black" stroke-miterlimit="10"/>
<path d="M132 215.5C142.493 215.5 151 206.993 151 196.5C151 186.007 142.493 177.5 132 177.5C121.507 177.5 113 186.007 113 196.5C113 206.993 121.507 215.5 132 215.5Z" fill="white" stroke="black" stroke-miterlimit="10"/>
<path d="M134.3 215.5C144.793 215.5 153.3 206.993 153.3 196.5C153.3 186.007 144.793 177.5 134.3 177.5C123.807 177.5 115.3 186.007 115.3 196.5C115.3 206.993 123.807 215.5 134.3 215.5Z" fill="white" stroke="black" stroke-miterlimit="10"/>
<path d="M136.7 215.5C147.193 215.5 155.7 206.993 155.7 196.5C155.7 186.007 147.193 177.5 136.7 177.5C126.207 177.5 117.7 186.007 117.7 196.5C117.7 206.993 126.207 215.5 136.7 215.5Z" fill="white" stroke="black" stroke-miterlimit="10"/>
<path d="M139.1 215.5C149.593 215.5 158.1 206.993 158.1 196.5C158.1 186.007 149.593 177.5 139.1 177.5C128.607 177.5 120.1 186.007 120.1 196.5C120.1 206.993 128.607 215.5 139.1 215.5Z" fill="white" stroke="black" stroke-miterlimit="10"/>
<path d="M141.5 215.5C151.993 215.5 160.5 206.993 160.5 196.5C160.5 186.007 151.993 177.5 141.5 177.5C131.007 177.5 122.5 186.007 122.5 196.5C122.5 206.993 131.007 215.5 141.5 215.5Z" fill="white" stroke="black" stroke-miterlimit="10"/>
<path d="M143.9 215.5C154.393 215.5 162.9 206.993 162.9 196.5C162.9 186.007 154.393 177.5 143.9 177.5C133.407 177.5 124.9 186.007 124.9 196.5C124.9 206.993 133.407 215.5 143.9 215.5Z" fill="white" stroke="black" stroke-miterlimit="10"/>
<path d="M146.2 215.5C156.693 215.5 165.2 206.993 165.2 196.5C165.2 186.007 156.693 177.5 146.2 177.5C135.707 177.5 127.2 186.007 127.2 196.5C127.2 206.993 135.707 215.5 146.2 215.5Z" fill="white" stroke="black" stroke-miterlimit="10"/>
<path d="M148.6 215.5C159.093 215.5 167.6 206.993 167.6 196.5C167.6 186.007 159.093 177.5 148.6 177.5C138.107 177.5 129.6 186.007 129.6 196.5C129.6 206.993 138.107 215.5 148.6 215.5Z" fill="white" stroke="black" stroke-miterlimit="10"/>
<path d="M151 215.5C161.493 215.5 170 206.993 170 196.5C170 186.007 161.493 177.5 151 177.5C140.507 177.5 132 186.007 132 196.5C132 206.993 140.507 215.5 151 215.5Z" fill="white" stroke="black" stroke-miterlimit="10"/>
<path d="M153.4 215.5C163.893 215.5 172.4 206.993 172.4 196.5C172.4 186.007 163.893 177.5 153.4 177.5C142.907 177.5 134.4 186.007 134.4 196.5C134.4 206.993 142.907 215.5 153.4 215.5Z" fill="white" stroke="black" stroke-miterlimit="10"/>
<path d="M155.7 215.5C166.193 215.5 174.7 206.993 174.7 196.5C174.7 186.007 166.193 177.5 155.7 177.5C145.207 177.5 136.7 186.007 136.7 196.5C136.7 206.993 145.207 215.5 155.7 215.5Z" fill="white" stroke="black" stroke-miterlimit="10"/>
<path d="M158.1 215.5C168.593 215.5 177.1 206.993 177.1 196.5C177.1 186.007 168.593 177.5 158.1 177.5C147.607 177.5 139.1 186.007 139.1 196.5C139.1 206.993 147.607 215.5 158.1 215.5Z" fill="white" stroke="black" stroke-miterlimit="10"/>
<path d="M116.3 259.7C126.793 259.7 135.3 251.193 135.3 240.7C135.3 230.207 126.793 221.7 116.3 221.7C105.807 221.7 97.3 230.207 97.3 240.7C97.3 251.193 105.807 259.7 116.3 259.7Z" fill="white" stroke="black" stroke-miterlimit="10"/>
<path d="M121.9 259.5C132.393 259.5 140.9 250.993 140.9 240.5C140.9 230.007 132.393 221.5 121.9 221.5C111.407 221.5 102.9 230.007 102.9 240.5C102.9 250.993 111.407 259.5 121.9 259.5Z" fill="white" stroke="black" stroke-miterlimit="10"/>
<path d="M127.3 258.8C137.793 258.8 146.3 250.293 146.3 239.8C146.3 229.307 137.793 220.8 127.3 220.8C116.807 220.8 108.3 229.307 108.3 239.8C108.3 250.293 116.807 258.8 127.3 258.8Z" fill="white" stroke="black" stroke-miterlimit="10"/>
<path d="M132.6 257.7C143.093 257.7 151.6 249.193 151.6 238.7C151.6 228.207 143.093 219.7 132.6 219.7C122.107 219.7 113.6 228.207 113.6 238.7C113.6 249.193 122.107 257.7 132.6 257.7Z" fill="white" stroke="black" stroke-miterlimit="10"/>
<path d="M137.8 256.3C148.293 256.3 156.8 247.793 156.8 237.3C156.8 226.807 148.293 218.3 137.8 218.3C127.307 218.3 118.8 226.807 118.8 237.3C118.8 247.793 127.307 256.3 137.8 256.3Z" fill="white" stroke="black" stroke-miterlimit="10"/>
<path d="M142.9 254.4C153.393 254.4 161.9 245.893 161.9 235.4C161.9 224.907 153.393 216.4 142.9 216.4C132.407 216.4 123.9 224.907 123.9 235.4C123.9 245.893 132.407 254.4 142.9 254.4Z" fill="white" stroke="black" stroke-miterlimit="10"/>
<path d="M147.7 252.1C158.193 252.1 166.7 243.593 166.7 233.1C166.7 222.607 158.193 214.1 147.7 214.1C137.207 214.1 128.7 222.607 128.7 233.1C128.7 243.593 137.207 252.1 147.7 252.1Z" fill="white" stroke="black" stroke-miterlimit="10"/>
<path d="M152.3 249.5C162.793 249.5 171.3 240.993 171.3 230.5C171.3 220.007 162.793 211.5 152.3 211.5C141.807 211.5 133.3 220.007 133.3 230.5C133.3 240.993 141.807 249.5 152.3 249.5Z" fill="white" stroke="black" stroke-miterlimit="10"/>
<path d="M156.7 246.5C167.193 246.5 175.7 237.993 175.7 227.5C175.7 217.007 167.193 208.5 156.7 208.5C146.207 208.5 137.7 217.007 137.7 227.5C137.7 237.993 146.207 246.5 156.7 246.5Z" fill="white" stroke="black" stroke-miterlimit="10"/>
<path d="M160.8 243.1C171.293 243.1 179.8 234.593 179.8 224.1C179.8 213.607 171.293 205.1 160.8 205.1C150.307 205.1 141.8 213.607 141.8 224.1C141.8 234.593 150.307 243.1 160.8 243.1Z" fill="white" stroke="black" stroke-miterlimit="10"/>
<path d="M164.6 239.4C175.093 239.4 183.6 230.893 183.6 220.4C183.6 209.907 175.093 201.4 164.6 201.4C154.107 201.4 145.6 209.907 145.6 220.4C145.6 230.893 154.107 239.4 164.6 239.4Z" fill="white" stroke="black" stroke-miterlimit="10"/>
<path d="M166.7 237.1C177.193 237.1 185.7 228.593 185.7 218.1C185.7 207.607 177.193 199.1 166.7 199.1C156.207 199.1 147.7 207.607 147.7 218.1C147.7 228.593 156.207 237.1 166.7 237.1Z" fill="white" stroke="black" stroke-miterlimit="10"/>
<path d="M169.9 232.6C180.393 232.6 188.9 224.093 188.9 213.6C188.9 203.107 180.393 194.6 169.9 194.6C159.407 194.6 150.9 203.107 150.9 213.6C150.9 224.093 159.407 232.6 169.9 232.6Z" fill="white" stroke="black" stroke-miterlimit="10"/>
<path d="M173.9 225.3C184.393 225.3 192.9 216.793 192.9 206.3C192.9 195.807 184.393 187.3 173.9 187.3C163.407 187.3 154.9 195.807 154.9 206.3C154.9 216.793 163.407 225.3 173.9 225.3Z" fill="white" stroke="black" stroke-miterlimit="10"/>
<path d="M175.6 219.9C186.093 219.9 194.6 211.393 194.6 200.9C194.6 190.407 186.093 181.9 175.6 181.9C165.107 181.9 156.6 190.407 156.6 200.9C156.6 211.393 165.107 219.9 175.6 219.9Z" fill="white" stroke="black" stroke-miterlimit="10"/>
<path d="M174.4 216C184.893 216 193.4 207.493 193.4 197C193.4 186.507 184.893 178 174.4 178C163.907 178 155.4 186.507 155.4 197C155.4 207.493 163.907 216 174.4 216Z" fill="white" stroke="black" stroke-miterlimit="10"/>
<path d="M169.5 216.3C179.993 216.3 188.5 207.793 188.5 197.3C188.5 186.807 179.993 178.3 169.5 178.3C159.007 178.3 150.5 186.807 150.5 197.3C150.5 207.793 159.007 216.3 169.5 216.3Z" fill="white" stroke="black" stroke-miterlimit="10"/>
<path d="M168.1 220.1C178.593 220.1 187.1 211.593 187.1 201.1C187.1 190.607 178.593 182.1 168.1 182.1C157.607 182.1 149.1 190.607 149.1 201.1C149.1 211.593 157.607 220.1 168.1 220.1Z" fill="white" stroke="black" stroke-miterlimit="10"/>
<path d="M164.7 227.3C175.193 227.3 183.7 218.793 183.7 208.3C183.7 197.807 175.193 189.3 164.7 189.3C154.207 189.3 145.7 197.807 145.7 208.3C145.7 218.793 154.207 227.3 164.7 227.3Z" fill="white" stroke="black" stroke-miterlimit="10"/>
<path d="M161.2 232.3C171.693 232.3 180.2 223.793 180.2 213.3C180.2 202.807 171.693 194.3 161.2 194.3C150.707 194.3 142.2 202.807 142.2 213.3C142.2 223.793 150.707 232.3 161.2 232.3Z" fill="white" stroke="black" stroke-miterlimit="10"/>
<path d="M159 234.8C169.493 234.8 178 226.293 178 215.8C178 205.307 169.493 196.8 159 196.8C148.507 196.8 140 205.307 140 215.8C140 226.293 148.507 234.8 159 234.8Z" fill="white" stroke="black" stroke-miterlimit="10"/>
<path d="M155.2 238.4C165.693 238.4 174.2 229.893 174.2 219.4C174.2 208.907 165.693 200.4 155.2 200.4C144.707 200.4 136.2 208.907 136.2 219.4C136.2 229.893 144.707 238.4 155.2 238.4Z" fill="white" stroke="black" stroke-miterlimit="10"/>
<path d="M151 241.7C161.493 241.7 170 233.193 170 222.7C170 212.207 161.493 203.7 151 203.7C140.507 203.7 132 212.207 132 222.7C132 233.193 140.507 241.7 151 241.7Z" fill="white" stroke="black" stroke-miterlimit="10"/>
<path d="M146.5 244.5C156.993 244.5 165.5 235.993 165.5 225.5C165.5 215.007 156.993 206.5 146.5 206.5C136.007 206.5 127.5 215.007 127.5 225.5C127.5 235.993 136.007 244.5 146.5 244.5Z" fill="white" stroke="black" stroke-miterlimit="10"/>
<path d="M141.8 247C152.293 247 160.8 238.493 160.8 228C160.8 217.507 152.293 209 141.8 209C131.307 209 122.8 217.507 122.8 228C122.8 238.493 131.307 247 141.8 247Z" fill="white" stroke="black" stroke-miterlimit="10"/>
<path d="M136.8 249C147.293 249 155.8 240.493 155.8 230C155.8 219.507 147.293 211 136.8 211C126.307 211 117.8 219.507 117.8 230C117.8 240.493 126.307 249 136.8 249Z" fill="white" stroke="black" stroke-miterlimit="10"/>
<path d="M131.6 250.5C142.093 250.5 150.6 241.993 150.6 231.5C150.6 221.007 142.093 212.5 131.6 212.5C121.107 212.5 112.6 221.007 112.6 231.5C112.6 241.993 121.107 250.5 131.6 250.5Z" fill="white" stroke="black" stroke-miterlimit="10"/>
<path d="M126.3 251.7C136.793 251.7 145.3 243.193 145.3 232.7C145.3 222.207 136.793 213.7 126.3 213.7C115.807 213.7 107.3 222.207 107.3 232.7C107.3 243.193 115.807 251.7 126.3 251.7Z" fill="white" stroke="black" stroke-miterlimit="10"/>
<path d="M120.9 252.3C131.393 252.3 139.9 243.793 139.9 233.3C139.9 222.807 131.393 214.3 120.9 214.3C110.407 214.3 101.9 222.807 101.9 233.3C101.9 243.793 110.407 252.3 120.9 252.3Z" fill="white" stroke="black" stroke-miterlimit="10"/>
<path d="M115.2 252.4C125.693 252.4 134.2 243.893 134.2 233.4C134.2 222.907 125.693 214.4 115.2 214.4C104.707 214.4 96.2 222.907 96.2 233.4C96.2 243.893 104.707 252.4 115.2 252.4Z" fill="white" stroke="black" stroke-miterlimit="10"/>
<path d="M109.5 252.1C119.993 252.1 128.5 243.593 128.5 233.1C128.5 222.607 119.993 214.1 109.5 214.1C99.0066 214.1 90.5 222.607 90.5 233.1C90.5 243.593 99.0066 252.1 109.5 252.1Z" fill="white" stroke="black" stroke-miterlimit="10"/>
<path d="M103.8 251.2C114.293 251.2 122.8 242.693 122.8 232.2C122.8 221.707 114.293 213.2 103.8 213.2C93.3066 213.2 84.8 221.707 84.8 232.2C84.8 242.693 93.3066 251.2 103.8 251.2Z" fill="white" stroke="black" stroke-miterlimit="10"/>
<path d="M98.4 249.8C108.893 249.8 117.4 241.293 117.4 230.8C117.4 220.307 108.893 211.8 98.4 211.8C87.9066 211.8 79.4 220.307 79.4 230.8C79.4 241.293 87.9066 249.8 98.4 249.8Z" fill="white" stroke="black" stroke-miterlimit="10"/>
<path d="M93.2 248C103.693 248 112.2 239.493 112.2 229C112.2 218.507 103.693 210 93.2 210C82.7066 210 74.2 218.507 74.2 229C74.2 239.493 82.7066 248 93.2 248Z" fill="white" stroke="black" stroke-miterlimit="10"/>
<path d="M88.3 245.7C98.7934 245.7 107.3 237.193 107.3 226.7C107.3 216.207 98.7934 207.7 88.3 207.7C77.8066 207.7 69.3 216.207 69.3 226.7C69.3 237.193 77.8066 245.7 88.3 245.7Z" fill="white" stroke="black" stroke-miterlimit="10"/>
<path d="M83.6 242.9C94.0934 242.9 102.6 234.393 102.6 223.9C102.6 213.407 94.0934 204.9 83.6 204.9C73.1066 204.9 64.6 213.407 64.6 223.9C64.6 234.393 73.1066 242.9 83.6 242.9Z" fill="white" stroke="black" stroke-miterlimit="10"/>
<path d="M79.3 239.9C89.7934 239.9 98.3 231.393 98.3 220.9C98.3 210.407 89.7934 201.9 79.3 201.9C68.8066 201.9 60.3 210.407 60.3 220.9C60.3 231.393 68.8066 239.9 79.3 239.9Z" fill="white" stroke="black" stroke-miterlimit="10"/>
<path d="M75.3 236.4C85.7934 236.4 94.3 227.893 94.3 217.4C94.3 206.907 85.7934 198.4 75.3 198.4C64.8066 198.4 56.3 206.907 56.3 217.4C56.3 227.893 64.8066 236.4 75.3 236.4Z" fill="white" stroke="black" stroke-miterlimit="10"/>
<path d="M71.7 232.6C82.1934 232.6 90.7 224.093 90.7 213.6C90.7 203.107 82.1934 194.6 71.7 194.6C61.2066 194.6 52.7 203.107 52.7 213.6C52.7 224.093 61.2066 232.6 71.7 232.6Z" fill="white" stroke="black" stroke-miterlimit="10"/>
<path d="M68.5 228.5C78.9934 228.5 87.5 219.993 87.5 209.5C87.5 199.007 78.9934 190.5 68.5 190.5C58.0066 190.5 49.5 199.007 49.5 209.5C49.5 219.993 58.0066 228.5 68.5 228.5Z" fill="white" stroke="black" stroke-miterlimit="10"/>
<path d="M65.7 224.1C76.1934 224.1 84.7 215.593 84.7 205.1C84.7 194.607 76.1934 186.1 65.7 186.1C55.2066 186.1 46.7 194.607 46.7 205.1C46.7 215.593 55.2066 224.1 65.7 224.1Z" fill="white" stroke="black" stroke-miterlimit="10"/>
<path d="M63.3 219.5C73.7934 219.5 82.3 210.993 82.3 200.5C82.3 190.007 73.7934 181.5 63.3 181.5C52.8066 181.5 44.3 190.007 44.3 200.5C44.3 210.993 52.8066 219.5 63.3 219.5Z" fill="white" stroke="black" stroke-miterlimit="10"/>
<path d="M61.5 214.6C71.9934 214.6 80.5 206.093 80.5 195.6C80.5 185.107 71.9934 176.6 61.5 176.6C51.0066 176.6 42.5 185.107 42.5 195.6C42.5 206.093 51.0066 214.6 61.5 214.6Z" fill="white" stroke="black" stroke-miterlimit="10"/>
<path d="M60.2 209.5C70.6934 209.5 79.2 200.993 79.2 190.5C79.2 180.007 70.6934 171.5 60.2 171.5C49.7066 171.5 41.2 180.007 41.2 190.5C41.2 200.993 49.7066 209.5 60.2 209.5Z" fill="white" stroke="black" stroke-miterlimit="10"/>
<path d="M59.4 204.3C69.8934 204.3 78.4 195.793 78.4 185.3C78.4 174.807 69.8934 166.3 59.4 166.3C48.9066 166.3 40.4 174.807 40.4 185.3C40.4 195.793 48.9066 204.3 59.4 204.3Z" fill="white" stroke="black" stroke-miterlimit="10"/>
<path d="M59.2 198.9C69.6934 198.9 78.2 190.393 78.2 179.9C78.2 169.407 69.6934 160.9 59.2 160.9C48.7066 160.9 40.2 169.407 40.2 179.9C40.2 190.393 48.7066 198.9 59.2 198.9Z" fill="white" stroke="black" stroke-miterlimit="10"/>
<path d="M59.6 193.6C70.0934 193.6 78.6 185.093 78.6 174.6C78.6 164.107 70.0934 155.6 59.6 155.6C49.1066 155.6 40.6 164.107 40.6 174.6C40.6 185.093 49.1066 193.6 59.6 193.6Z" fill="white" stroke="black" stroke-miterlimit="10"/>
<path d="M60.6 188.4C71.0934 188.4 79.6 179.893 79.6 169.4C79.6 158.907 71.0934 150.4 60.6 150.4C50.1066 150.4 41.6 158.907 41.6 169.4C41.6 179.893 50.1066 188.4 60.6 188.4Z" fill="white" stroke="black" stroke-miterlimit="10"/>
<path d="M62.1 183.4C72.5934 183.4 81.1 174.893 81.1 164.4C81.1 153.907 72.5934 145.4 62.1 145.4C51.6066 145.4 43.1 153.907 43.1 164.4C43.1 174.893 51.6066 183.4 62.1 183.4Z" fill="white" stroke="black" stroke-miterlimit="10"/>
<path d="M64.1 178.6C74.5934 178.6 83.1 170.093 83.1 159.6C83.1 149.107 74.5934 140.6 64.1 140.6C53.6066 140.6 45.1 149.107 45.1 159.6C45.1 170.093 53.6066 178.6 64.1 178.6Z" fill="white" stroke="black" stroke-miterlimit="10"/>
<path d="M66.6 174C77.0934 174 85.6 165.493 85.6 155C85.6 144.507 77.0934 136 66.6 136C56.1066 136 47.6 144.507 47.6 155C47.6 165.493 56.1066 174 66.6 174Z" fill="white" stroke="black" stroke-miterlimit="10"/>
<path d="M69.5 169.7C79.9934 169.7 88.5 161.193 88.5 150.7C88.5 140.207 79.9934 131.7 69.5 131.7C59.0066 131.7 50.5 140.207 50.5 150.7C50.5 161.193 59.0066 169.7 69.5 169.7Z" fill="white" stroke="black" stroke-miterlimit="10"/>
<path d="M72.8 165.7C83.2934 165.7 91.8 157.193 91.8 146.7C91.8 136.207 83.2934 127.7 72.8 127.7C62.3066 127.7 53.8 136.207 53.8 146.7C53.8 157.193 62.3066 165.7 72.8 165.7Z" fill="white" stroke="black" stroke-miterlimit="10"/>
<path d="M76.6 162.1C87.0934 162.1 95.6 153.593 95.6 143.1C95.6 132.607 87.0934 124.1 76.6 124.1C66.1066 124.1 57.6 132.607 57.6 143.1C57.6 153.593 66.1066 162.1 76.6 162.1Z" fill="white" stroke="black" stroke-miterlimit="10"/>
<path d="M80.7 158.7C91.1934 158.7 99.7 150.193 99.7 139.7C99.7 129.207 91.1934 120.7 80.7 120.7C70.2066 120.7 61.7 129.207 61.7 139.7C61.7 150.193 70.2066 158.7 80.7 158.7Z" fill="white" stroke="black" stroke-miterlimit="10"/>
<path d="M85.2 155.8C95.6934 155.8 104.2 147.293 104.2 136.8C104.2 126.307 95.6934 117.8 85.2 117.8C74.7066 117.8 66.2 126.307 66.2 136.8C66.2 147.293 74.7066 155.8 85.2 155.8Z" fill="white" stroke="black" stroke-miterlimit="10"/>
<path d="M89.9 153.2C100.393 153.2 108.9 144.693 108.9 134.2C108.9 123.707 100.393 115.2 89.9 115.2C79.4066 115.2 70.9 123.707 70.9 134.2C70.9 144.693 79.4066 153.2 89.9 153.2Z" fill="white" stroke="black" stroke-miterlimit="10"/>
<path d="M94.9 151C105.393 151 113.9 142.493 113.9 132C113.9 121.507 105.393 113 94.9 113C84.4066 113 75.9 121.507 75.9 132C75.9 142.493 84.4066 151 94.9 151Z" fill="white" stroke="black" stroke-miterlimit="10"/>
<path d="M100.2 149.3C110.693 149.3 119.2 140.793 119.2 130.3C119.2 119.807 110.693 111.3 100.2 111.3C89.7066 111.3 81.2 119.807 81.2 130.3C81.2 140.793 89.7066 149.3 100.2 149.3Z" fill="white" stroke="black" stroke-miterlimit="10"/>
<path d="M105.7 148.1C116.193 148.1 124.7 139.593 124.7 129.1C124.7 118.607 116.193 110.1 105.7 110.1C95.2066 110.1 86.7 118.607 86.7 129.1C86.7 139.593 95.2066 148.1 105.7 148.1Z" fill="white" stroke="black" stroke-miterlimit="10"/>
<path d="M111.4 147.4C121.893 147.4 130.4 138.893 130.4 128.4C130.4 117.907 121.893 109.4 111.4 109.4C100.907 109.4 92.4 117.907 92.4 128.4C92.4 138.893 100.907 147.4 111.4 147.4Z" fill="white" stroke="black" stroke-miterlimit="10"/>
<path d="M117.2 147.2C127.693 147.2 136.2 138.693 136.2 128.2C136.2 117.707 127.693 109.2 117.2 109.2C106.707 109.2 98.2 117.707 98.2 128.2C98.2 138.693 106.707 147.2 117.2 147.2Z" fill="white" stroke="black" stroke-miterlimit="10"/>
<path d="M122.7 147.5C133.193 147.5 141.7 138.993 141.7 128.5C141.7 118.007 133.193 109.5 122.7 109.5C112.207 109.5 103.7 118.007 103.7 128.5C103.7 138.993 112.207 147.5 122.7 147.5Z" fill="white" stroke="black" stroke-miterlimit="10"/>
<path d="M128.2 148.3C138.693 148.3 147.2 139.793 147.2 129.3C147.2 118.807 138.693 110.3 128.2 110.3C117.707 110.3 109.2 118.807 109.2 129.3C109.2 139.793 117.707 148.3 128.2 148.3Z" fill="white" stroke="black" stroke-miterlimit="10"/>
<path d="M133.4 149.6C143.893 149.6 152.4 141.093 152.4 130.6C152.4 120.107 143.893 111.6 133.4 111.6C122.907 111.6 114.4 120.107 114.4 130.6C114.4 141.093 122.907 149.6 133.4 149.6Z" fill="white" stroke="black" stroke-miterlimit="10"/>
<path d="M138.5 151.3C148.993 151.3 157.5 142.793 157.5 132.3C157.5 121.807 148.993 113.3 138.5 113.3C128.007 113.3 119.5 121.807 119.5 132.3C119.5 142.793 128.007 151.3 138.5 151.3Z" fill="white" stroke="black" stroke-miterlimit="10"/>
<path d="M143.4 153.5C153.893 153.5 162.4 144.993 162.4 134.5C162.4 124.007 153.893 115.5 143.4 115.5C132.907 115.5 124.4 124.007 124.4 134.5C124.4 144.993 132.907 153.5 143.4 153.5Z" fill="white" stroke="black" stroke-miterlimit="10"/>
<path d="M148.1 156.1C158.593 156.1 167.1 147.593 167.1 137.1C167.1 126.607 158.593 118.1 148.1 118.1C137.607 118.1 129.1 126.607 129.1 137.1C129.1 147.593 137.607 156.1 148.1 156.1Z" fill="white" stroke="black" stroke-miterlimit="10"/>
<path d="M152.4 159.1C162.893 159.1 171.4 150.593 171.4 140.1C171.4 129.607 162.893 121.1 152.4 121.1C141.907 121.1 133.4 129.607 133.4 140.1C133.4 150.593 141.907 159.1 152.4 159.1Z" fill="white" stroke="black" stroke-miterlimit="10"/>
<path d="M156.5 162.4C166.993 162.4 175.5 153.893 175.5 143.4C175.5 132.907 166.993 124.4 156.5 124.4C146.007 124.4 137.5 132.907 137.5 143.4C137.5 153.893 146.007 162.4 156.5 162.4Z" fill="white" stroke="black" stroke-miterlimit="10"/>
<path d="M160.3 166.2C170.793 166.2 179.3 157.693 179.3 147.2C179.3 136.707 170.793 128.2 160.3 128.2C149.807 128.2 141.3 136.707 141.3 147.2C141.3 157.693 149.807 166.2 160.3 166.2Z" fill="white" stroke="black" stroke-miterlimit="10"/>
<path d="M164.8 168.3C175.293 168.3 183.8 159.793 183.8 149.3C183.8 138.807 175.293 130.3 164.8 130.3C154.307 130.3 145.8 138.807 145.8 149.3C145.8 159.793 154.307 168.3 164.8 168.3Z" fill="white" stroke="black" stroke-miterlimit="10"/>
<path d="M167.3 164.1C177.793 164.1 186.3 155.593 186.3 145.1C186.3 134.607 177.793 126.1 167.3 126.1C156.807 126.1 148.3 134.607 148.3 145.1C148.3 155.593 156.807 164.1 167.3 164.1Z" fill="white" stroke="black" stroke-miterlimit="10"/>
<path d="M164.2 159.8C174.693 159.8 183.2 151.293 183.2 140.8C183.2 130.307 174.693 121.8 164.2 121.8C153.707 121.8 145.2 130.307 145.2 140.8C145.2 151.293 153.707 159.8 164.2 159.8Z" fill="white" stroke="black" stroke-miterlimit="10"/>
<path d="M160.3 156.1C170.793 156.1 179.3 147.593 179.3 137.1C179.3 126.607 170.793 118.1 160.3 118.1C149.807 118.1 141.3 126.607 141.3 137.1C141.3 147.593 149.807 156.1 160.3 156.1Z" fill="white" stroke="black" stroke-miterlimit="10"/>
<path d="M156.2 152.8C166.693 152.8 175.2 144.293 175.2 133.8C175.2 123.307 166.693 114.8 156.2 114.8C145.707 114.8 137.2 123.307 137.2 133.8C137.2 144.293 145.707 152.8 156.2 152.8Z" fill="white" stroke="black" stroke-miterlimit="10"/>
<path d="M151.8 149.9C162.293 149.9 170.8 141.393 170.8 130.9C170.8 120.407 162.293 111.9 151.8 111.9C141.307 111.9 132.8 120.407 132.8 130.9C132.8 141.393 141.307 149.9 151.8 149.9Z" fill="white" stroke="black" stroke-miterlimit="10"/>
<path d="M147.1 147.3C157.593 147.3 166.1 138.793 166.1 128.3C166.1 117.807 157.593 109.3 147.1 109.3C136.607 109.3 128.1 117.807 128.1 128.3C128.1 138.793 136.607 147.3 147.1 147.3Z" fill="white" stroke="black" stroke-miterlimit="10"/>
<path d="M142.3 145C152.793 145 161.3 136.493 161.3 126C161.3 115.507 152.793 107 142.3 107C131.807 107 123.3 115.507 123.3 126C123.3 136.493 131.807 145 142.3 145Z" fill="white" stroke="black" stroke-miterlimit="10"/>
<path d="M137.2 143.2C147.693 143.2 156.2 134.693 156.2 124.2C156.2 113.707 147.693 105.2 137.2 105.2C126.707 105.2 118.2 113.707 118.2 124.2C118.2 134.693 126.707 143.2 137.2 143.2Z" fill="white" stroke="black" stroke-miterlimit="10"/>
<path d="M132 141.8C142.493 141.8 151 133.293 151 122.8C151 112.307 142.493 103.8 132 103.8C121.507 103.8 113 112.307 113 122.8C113 133.293 121.507 141.8 132 141.8Z" fill="white" stroke="black" stroke-miterlimit="10"/>
<path d="M126.7 140.8C137.193 140.8 145.7 132.293 145.7 121.8C145.7 111.307 137.193 102.8 126.7 102.8C116.207 102.8 107.7 111.307 107.7 121.8C107.7 132.293 116.207 140.8 126.7 140.8Z" fill="white" stroke="black" stroke-miterlimit="10"/>
<path d="M121.2 140.2C131.693 140.2 140.2 131.693 140.2 121.2C140.2 110.707 131.693 102.2 121.2 102.2C110.707 102.2 102.2 110.707 102.2 121.2C102.2 131.693 110.707 140.2 121.2 140.2Z" fill="white" stroke="black" stroke-miterlimit="10"/>
<path d="M115.6 140C126.093 140 134.6 131.493 134.6 121C134.6 110.507 126.093 102 115.6 102C105.107 102 96.6 110.507 96.6 121C96.6 131.493 105.107 140 115.6 140Z" fill="white" stroke="black" stroke-miterlimit="10"/>
<path d="M109.8 140.3C120.293 140.3 128.8 131.793 128.8 121.3C128.8 110.807 120.293 102.3 109.8 102.3C99.3066 102.3 90.8 110.807 90.8 121.3C90.8 131.793 99.3066 140.3 109.8 140.3Z" fill="white" stroke="black" stroke-miterlimit="10"/>
<path d="M104.2 141.1C114.693 141.1 123.2 132.593 123.2 122.1C123.2 111.607 114.693 103.1 104.2 103.1C93.7066 103.1 85.2 111.607 85.2 122.1C85.2 132.593 93.7066 141.1 104.2 141.1Z" fill="white" stroke="black" stroke-miterlimit="10"/>
<path d="M98.7 142.3C109.193 142.3 117.7 133.793 117.7 123.3C117.7 112.807 109.193 104.3 98.7 104.3C88.2066 104.3 79.7 112.807 79.7 123.3C79.7 133.793 88.2066 142.3 98.7 142.3Z" fill="white" stroke="black" stroke-miterlimit="10"/>
<path d="M93.4 143.9C103.893 143.9 112.4 135.393 112.4 124.9C112.4 114.407 103.893 105.9 93.4 105.9C82.9066 105.9 74.4 114.407 74.4 124.9C74.4 135.393 82.9066 143.9 93.4 143.9Z" fill="white" stroke="black" stroke-miterlimit="10"/>
<path d="M88.3 145.9C98.7934 145.9 107.3 137.393 107.3 126.9C107.3 116.407 98.7934 107.9 88.3 107.9C77.8066 107.9 69.3 116.407 69.3 126.9C69.3 137.393 77.8066 145.9 88.3 145.9Z" fill="white" stroke="black" stroke-miterlimit="10"/>
<path d="M83.5 148.4C93.9934 148.4 102.5 139.893 102.5 129.4C102.5 118.907 93.9934 110.4 83.5 110.4C73.0066 110.4 64.5 118.907 64.5 129.4C64.5 139.893 73.0066 148.4 83.5 148.4Z" fill="white" stroke="black" stroke-miterlimit="10"/>
<path d="M78.9 151.2C89.3934 151.2 97.9 142.693 97.9 132.2C97.9 121.707 89.3934 113.2 78.9 113.2C68.4066 113.2 59.9 121.707 59.9 132.2C59.9 142.693 68.4066 151.2 78.9 151.2Z" fill="white" stroke="black" stroke-miterlimit="10"/>
<path d="M74.6 154.3C85.0934 154.3 93.6 145.793 93.6 135.3C93.6 124.807 85.0934 116.3 74.6 116.3C64.1066 116.3 55.6 124.807 55.6 135.3C55.6 145.793 64.1066 154.3 74.6 154.3Z" fill="white" stroke="black" stroke-miterlimit="10"/>
<path d="M70.6 157.8C81.0934 157.8 89.6 149.293 89.6 138.8C89.6 128.307 81.0934 119.8 70.6 119.8C60.1066 119.8 51.6 128.307 51.6 138.8C51.6 149.293 60.1066 157.8 70.6 157.8Z" fill="white" stroke="black" stroke-miterlimit="10"/>
<path d="M66.9 161.5C77.3934 161.5 85.9 152.993 85.9 142.5C85.9 132.007 77.3934 123.5 66.9 123.5C56.4066 123.5 47.9 132.007 47.9 142.5C47.9 152.993 56.4066 161.5 66.9 161.5Z" fill="white" stroke="black" stroke-miterlimit="10"/>
<path d="M63.6 165.5C74.0934 165.5 82.6 156.993 82.6 146.5C82.6 136.007 74.0934 127.5 63.6 127.5C53.1066 127.5 44.6 136.007 44.6 146.5C44.6 156.993 53.1066 165.5 63.6 165.5Z" fill="white" stroke="black" stroke-miterlimit="10"/>
<path d="M60.7 169.8C71.1934 169.8 79.7 161.293 79.7 150.8C79.7 140.307 71.1934 131.8 60.7 131.8C50.2066 131.8 41.7 140.307 41.7 150.8C41.7 161.293 50.2066 169.8 60.7 169.8Z" fill="white" stroke="black" stroke-miterlimit="10"/>
<path d="M58.1 174.4C68.5934 174.4 77.1 165.893 77.1 155.4C77.1 144.907 68.5934 136.4 58.1 136.4C47.6066 136.4 39.1 144.907 39.1 155.4C39.1 165.893 47.6066 174.4 58.1 174.4Z" fill="white" stroke="black" stroke-miterlimit="10"/>
<path d="M56 179.1C66.4934 179.1 75 170.593 75 160.1C75 149.607 66.4934 141.1 56 141.1C45.5066 141.1 37 149.607 37 160.1C37 170.593 45.5066 179.1 56 179.1Z" fill="white" stroke="black" stroke-miterlimit="10"/>
<path d="M54.3 184C64.7934 184 73.3 175.493 73.3 165C73.3 154.507 64.7934 146 54.3 146C43.8066 146 35.3 154.507 35.3 165C35.3 175.493 43.8066 184 54.3 184Z" fill="white" stroke="black" stroke-miterlimit="10"/>
<path d="M53 189.2C63.4934 189.2 72 180.693 72 170.2C72 159.707 63.4934 151.2 53 151.2C42.5066 151.2 34 159.707 34 170.2C34 180.693 42.5066 189.2 53 189.2Z" fill="white" stroke="black" stroke-miterlimit="10"/>
<path d="M52.2 194.4C62.6934 194.4 71.2 185.893 71.2 175.4C71.2 164.907 62.6934 156.4 52.2 156.4C41.7066 156.4 33.2 164.907 33.2 175.4C33.2 185.893 41.7066 194.4 52.2 194.4Z" fill="white" stroke="black" stroke-miterlimit="10"/>
<path d="M52 199.8C62.4934 199.8 71 191.293 71 180.8C71 170.307 62.4934 161.8 52 161.8C41.5066 161.8 33 170.307 33 180.8C33 191.293 41.5066 199.8 52 199.8Z" fill="white" stroke="black" stroke-miterlimit="10"/>
</svg>
